<svg version="1.0" xmlns="http://www.w3.org/2000/svg" width="682.667" height="682.667" viewBox="0 0 512 512"><path d="M84.3 1.5c-32.8 6-60.9 27.8-74.9 58-2.9 6.3-4.9 12.5-8.1 25-.4 1.6-.9 77.7-1 169C.1 434.2-.2 426.2 5.6 443c9.2 26.4 28.5 47.8 53.5 59.3 9.6 4.5 12.5 5.4 23.4 7.7 8.6 1.8 15.8 1.9 173 1.9 174.8 0 169.8.1 185.5-4.8 30.4-9.5 55.3-34 65.5-64.5 5.6-16.7 5.4-8.7 5.4-186.1 0-90.2-.4-166-.9-168.5-.4-2.5-1-5.9-1.3-7.7-.3-1.8-1.5-6.2-2.7-9.7-10.2-30.8-33.7-54.5-64.4-65.1C426.5-.1 431.9.1 255 .2 124.3.2 90.1.5 84.3 1.5z"/></svg>